<svg xmlns="http://www.w3.org/2000/svg" xmlns:xlink="http://www.w3.org/1999/xlink" width="138" height="31"><defs><path d="M20.966.057l20.43 11.227c.192.076.278.2.192.276l-20.43 11.227a1.088 1.088 0 01-.695 0L.033 11.56c-.086-.076.001-.2.192-.276L20.655.057a.24.24 0 01.31 0z" id="a"/></defs><g fill="none" fill-rule="evenodd"><g transform="translate(0 7.552)"><mask id="b" fill="#fff"><use xlink:href="#a"/></mask><use fill="#87c05d" xlink:href="#a"/><path d="M20.966-2.683l20.43 11.227c.192.076.278.2.192.276l-20.43 11.227a1.088 1.088 0 01-.695 0L.033 8.82c-.086-.076.001-.2.192-.276l20.43-11.227a.24.24 0 01.31 0z" fill="#568d3a" opacity=".5" mask="url(#b)"/></g><path d="M20.986.057l20.45 11.263c.192.076.278.2.192.277L21.178 22.86a1.088 1.088 0 01-.695 0L.033 11.597c-.086-.076.001-.2.192-.277L20.676.057a.24.24 0 01.31 0z" fill="#383fda" opacity=".9"/><path d="M51.43 19.85c.017-.295.11-.63.283-1.003s.37-.664.592-.872c1.372.764 2.486 1.146 3.343 1.146.874 0 1.522-.148 1.942-.443s.63-.686.63-1.172c0-.764-.54-1.354-1.62-1.77l-1.44-.547c-2.177-.833-3.266-2.075-3.266-3.724 0-1.198.424-2.14 1.273-2.826s1.96-1.03 3.33-1.03c1.39 0 2.77.312 4.14.938 0 .347-.073.712-.22 1.094s-.34.677-.58.885c-1.217-.573-2.357-.86-3.42-.86-.566 0-1.016.14-1.35.417s-.5.625-.5 1.042.124.738.373.964.656.45 1.222.677l1.543.6c2.177.85 3.266 2.153 3.266 3.906 0 1.198-.454 2.144-1.363 2.84s-2.143 1.042-3.703 1.042-3.052-.434-4.475-1.302zm16.82-9.66v10.625c-.326.07-.767.104-1.324.104s-1-.035-1.324-.104v-9.53c0-.486-.086-.833-.257-1.042s-.463-.312-.874-.312h-.283c-.086-.382-.13-.703-.13-.964s.043-.6.13-1c.566-.07 1.106-.104 1.62-.104h.36c.652 0 1.162.208 1.53.625s.553.98.553 1.693zm-3.215-4.66c-.154-.313-.23-.694-.23-1.146 0-.712.13-1.133.386-1.263s.686-.204 1.286-.22c.686.017 1.123.104 1.312.26s.29.564.31 1.224c-.017.625-.12 1.024-.31 1.198s-.626.27-1.312.286c-.67 0-1.15-.113-1.44-.34zm14.582 2.396c.086.295.13.634.13 1.016s-.043.712-.13 1l-3.163-.052v7.786c0 .764.35 1.146 1.054 1.146h1.775c.137.382.206.768.206 1.16s-.017.647-.05.768c-.994.122-1.955.182-2.88.182-1.8 0-2.7-.894-2.7-2.682V9.9l-1.903.026a4.234 4.234 0 01-.103-.977 5.04 5.04 0 01.103-1.029l1.903.052v-2.29c0-.625.103-1.068.31-1.328s.574-.39 1.106-.39h1.003l.18.182V8l3.163-.078zm13.22 7.318h-7.56c.05 1.198.304 2.118.76 2.76s1.222.964 2.302.964c.514 0 1.067-.078 1.66-.234s1.204-.408 1.84-.755c.43.4.712.972.85 1.72-1.372.972-2.983 1.458-4.835 1.458-.977 0-1.8-.174-2.47-.52a4.44 4.44 0 01-1.633-1.432c-.42-.608-.724-1.332-.913-2.174s-.283-1.75-.283-2.72c0-.955.12-1.845.36-2.67s.583-1.532 1.03-2.122 1-1.055 1.66-1.393 1.402-.508 2.225-.508 1.556.14 2.2.417 1.187.664 1.633 1.16.784 1.085 1.016 1.77a6.92 6.92 0 01.347 2.227l-.04 1.03c-.026.34-.073.68-.14 1.03zm-4.938-5.625c-1.63 0-2.503 1.224-2.623 3.672h5.195v-.34c0-1-.2-1.793-.63-2.41s-1.067-.924-1.942-.924zM101.63 7.74c.926 0 1.895.286 2.906.86V1.83l.18-.156h1.003c.53 0 .9.13 1.106.39s.31.703.31 1.328v13.75c0 1.215.24 2.04.72 2.474-.07.243-.197.503-.386.78s-.386.477-.592.6c-.977-.19-1.654-.73-2.032-1.615-1.012 1.18-2.246 1.77-3.703 1.77s-2.563-.595-3.318-1.784-1.132-2.843-1.132-4.96c0-1.06.133-2 .4-2.826s.622-1.523 1.067-2.096.97-1.007 1.57-1.302 1.234-.443 1.903-.443zm.103 11.172c1.114 0 2.05-.547 2.803-1.64v-6.458c-.96-.625-1.792-.937-2.495-.937-.772 0-1.406.39-1.903 1.172s-.746 1.936-.746 3.464c0 1.5.223 2.622.67 3.333s1.003 1.068 1.672 1.068zm13.682-8.724v10.625c-.326.07-.767.104-1.324.104s-1-.035-1.324-.104v-9.53c0-.486-.086-.833-.257-1.042s-.463-.312-.874-.312h-.283c-.086-.382-.13-.703-.13-.964s.043-.6.13-1c.566-.07 1.106-.104 1.62-.104h.36c.652 0 1.162.208 1.53.625s.553.98.553 1.693zm-3.215-4.66c-.154-.313-.23-.694-.23-1.146 0-.712.13-1.133.386-1.263s.686-.204 1.286-.22c.686.017 1.123.104 1.312.26s.29.564.31 1.224c-.017.625-.12 1.024-.31 1.198s-.626.27-1.312.286c-.67 0-1.15-.113-1.44-.34zm8.924 15.286V9.875l-2.212.052a3.33 3.33 0 01-.077-.469l-.026-.52c0-.4.034-.738.103-1.016l2.083.026-.154-2.318c0-.6.1-1.133.27-1.628s.44-.924.784-1.29.754-.647 1.234-.846 1.02-.3 1.62-.3c1.2 0 2.315.2 3.343.6 0 .78-.206 1.39-.617 1.823l-1.12-.286a5.01 5.01 0 00-.964-.104c-.72 0-1.24.195-1.556.586s-.476.977-.476 1.758c0 .295.017.608.05.938l.13 1.094 3.626-.052a4.34 4.34 0 01.077.482 5.18 5.18 0 01.026.534l-.026.52a3.33 3.33 0 01-.077.469l-3.446-.052v10.938a5.99 5.99 0 01-.617.078l-.694.026c-.24 0-.47-.01-.694-.026a4.94 4.94 0 01-.592-.078zm9.85 0V9.875l-2.212.052a3.33 3.33 0 01-.077-.469l-.026-.52c0-.4.034-.738.103-1.016l2.083.026-.154-2.318c0-.6.1-1.133.27-1.628s.44-.924.784-1.29.754-.647 1.234-.846 1.02-.3 1.62-.3c1.2 0 2.315.2 3.343.6 0 .78-.206 1.39-.617 1.823l-1.12-.286a5.01 5.01 0 00-.964-.104c-.72 0-1.24.195-1.556.586s-.476.977-.476 1.758c0 .295.017.608.05.938l.13 1.094 3.626-.052a4.34 4.34 0 01.077.482 5.18 5.18 0 01.026.534l-.026.52a3.33 3.33 0 01-.077.469l-3.446-.052v10.938a5.99 5.99 0 01-.617.078l-.694.026c-.24 0-.47-.01-.694-.026a4.94 4.94 0 01-.592-.078z" fill="#fff"/></g></svg>